<svg width="18" height="18" viewBox="0 0 18 18" fill="none" xmlns="http://www.w3.org/2000/svg">
<path d="M12.7268 0.75H5.27322C2.77911 0.75 0.75 2.77911 0.75 5.27326V12.7268C0.75 15.2209 2.77911 17.25 5.27322 17.25H12.7268C15.2209 17.25 17.25 15.2209 17.25 12.7268V5.27326C17.25 2.77911 15.2209 0.75 12.7268 0.75ZM16.2756 12.7268C16.2756 14.6836 14.6836 16.2756 12.7268 16.2756H5.27322C3.31639 16.2756 1.7244 14.6836 1.7244 12.7268V5.27326C1.7244 3.31639 3.31639 1.7244 5.27322 1.7244H12.7268C14.6836 1.7244 16.2756 3.31639 16.2756 5.27326V12.7268Z" fill="#E5E5E5"/>
<path d="M8.99994 4.47443C6.50451 4.47443 4.47433 6.5046 4.47433 9.00003C4.47433 11.4955 6.50448 13.5256 8.99994 13.5256C11.4954 13.5256 13.5256 11.4954 13.5256 9C13.5256 6.50457 11.4954 4.47443 8.99994 4.47443ZM8.99994 12.5513C7.04179 12.5513 5.4487 10.9581 5.4487 9C5.4487 7.04185 7.04179 5.44876 8.99994 5.44876C10.9581 5.44876 12.5512 7.04188 12.5512 9.00003C12.5512 10.9582 10.9581 12.5513 8.99994 12.5513Z" fill="#E5E5E5"/>
<path d="M13.7963 2.82869C13.0381 2.82869 12.4213 3.44554 12.4213 4.2037C12.4213 4.96186 13.0381 5.57867 13.7963 5.57867C14.5544 5.57867 15.1713 4.96183 15.1713 4.20367C15.1713 3.4455 14.5544 2.82869 13.7963 2.82869ZM13.7963 4.60424C13.5754 4.60424 13.3957 4.42455 13.3957 4.20367C13.3957 3.98279 13.5754 3.80309 13.7963 3.80309C14.0172 3.80309 14.1968 3.98282 14.1968 4.20367C14.1968 4.42451 14.0172 4.60424 13.7963 4.60424Z" fill="#E5E5E5"/>
</svg>
