<svg width="17" height="16" viewBox="0 0 17 16" fill="none" xmlns="http://www.w3.org/2000/svg">
<path d="M0.293958 7.9305L4.45117 10.0024C4.61196 10.0817 4.80179 10.076 4.9555 9.98608L8.65583 7.83487L6.41608 9.81962C6.30204 9.92091 6.23687 10.0654 6.23687 10.2177V15.0521C6.23687 15.5621 6.88783 15.7767 7.19312 15.3715L8.99017 12.9823L13.4342 15.5132C13.7459 15.6924 14.1454 15.5125 14.2177 15.1562L16.9894 1.3437C17.0722 0.928615 16.6593 0.590032 16.2754 0.744448L0.337875 6.96008C-0.0899583 7.12725 -0.117583 7.72579 0.293958 7.9305V7.9305ZM15.7569 2.08745L13.3209 14.2262L9.10987 11.8277C8.88037 11.6967 8.585 11.7548 8.42208 11.9701L7.29937 13.4626V10.4564L13.3563 5.09008C13.8359 4.66578 13.2848 3.91141 12.7372 4.23299L4.66933 8.92358L1.84167 7.5147L15.7569 2.08745Z" fill="#E5E5E5"/>
</svg>
