<svg width="18" height="18" viewBox="0 0 18 18" fill="none" xmlns="http://www.w3.org/2000/svg">
<path d="M13.1295 10.6834L12.2551 9.80899C12.0165 9.57042 11.6868 9.45086 11.351 9.48105C11.015 9.51119 10.7121 9.68743 10.5198 9.96455L10.2152 10.4035C9.80092 10.3297 8.99954 10.1208 8.43938 9.56065C7.87899 9.00023 7.67016 8.1985 7.59649 7.78487L8.03555 7.48023C8.3127 7.28791 8.48894 6.98488 8.51901 6.64889C8.54914 6.31289 8.42958 5.98341 8.19107 5.74493L7.31664 4.87049C6.96524 4.51913 6.43559 4.43527 5.9986 4.6617C5.23238 5.05866 4.72907 5.80278 4.58121 6.75694C4.34038 8.31152 5.05907 10.1455 6.45677 11.5432C7.67577 12.7622 9.22654 13.4647 10.6344 13.4647C10.8409 13.4647 11.0443 13.4496 11.243 13.4188C12.1973 13.271 12.9414 12.7676 13.3383 12.0015C13.3383 12.0015 13.3383 12.0015 13.3383 12.0015C13.5647 11.5644 13.4808 11.0348 13.1295 10.6834ZM12.4486 11.5405C12.1331 12.1494 11.5355 12.3595 11.0897 12.4286C9.86392 12.6184 8.32349 11.9928 7.1653 10.8347C6.00717 9.67651 5.38153 8.13614 5.57141 6.91034C5.64044 6.46452 5.85062 5.86691 6.45951 5.55141C6.47601 5.5429 6.49425 5.53874 6.51274 5.53874C6.54678 5.53874 6.58171 5.55276 6.60801 5.57903L7.48247 6.4535C7.51879 6.48988 7.52343 6.53119 7.52089 6.55946C7.51834 6.58775 7.50648 6.62758 7.4642 6.65691L6.77349 7.13618C6.62905 7.23641 6.54768 7.40508 6.55918 7.58052C6.56353 7.64678 6.67749 9.21583 7.73078 10.2691C8.78407 11.3224 10.3531 11.4365 10.4194 11.4408C10.5947 11.452 10.7635 11.3709 10.8637 11.2264L11.343 10.5357C11.3723 10.4935 11.4122 10.4816 11.4404 10.479C11.4688 10.4764 11.5101 10.4811 11.5465 10.5175L12.4209 11.3919C12.4615 11.4325 12.4729 11.4936 12.4486 11.5405Z" fill="#E5E5E5"/>
<path d="M14.8335 3.16648C13.2752 1.60816 11.2035 0.75 8.99967 0.75C6.79589 0.75 4.72411 1.60816 3.16582 3.16644C1.8414 4.49086 1.00061 6.24369 0.798229 8.10207C0.606899 9.8589 0.98872 11.6471 1.87456 13.163L1.01482 16.3715C0.968482 16.5444 1.01792 16.7289 1.14454 16.8555C1.27109 16.982 1.45565 17.0315 1.62845 16.9852L4.837 16.1255C6.09718 16.8619 7.54574 17.25 9.00789 17.25C9.30447 17.25 9.60163 17.234 9.89789 17.2018C11.7563 16.9994 13.5091 16.1586 14.8335 14.8341C16.3918 13.2759 17.25 11.204 17.25 9.00032C17.25 6.79661 16.3918 4.72476 14.8335 3.16648ZM14.125 14.1256C11.7295 16.521 8.05025 16.9467 5.17766 15.1608C5.09748 15.111 5.00573 15.0853 4.91308 15.0853C4.86971 15.0853 4.82614 15.0909 4.78343 15.1024L2.20734 15.7927L2.89763 13.2166C2.93347 13.0828 2.91229 12.94 2.83917 12.8224C1.05327 9.94968 1.47898 6.27041 3.87435 3.87501C6.7005 1.04893 11.2988 1.04893 14.125 3.87501C16.951 6.70109 16.951 11.2995 14.125 14.1256Z" fill="#E5E5E5"/>
</svg>
